<svg width="48" height="48" viewBox="0 0 48 48" fill="none" xmlns="http://www.w3.org/2000/svg">
<path d="M19.6897 30.1243C18.2481 30.5272 17.1583 31.5433 16.6196 32.2243C16.3919 32.5163 16.2904 32.9958 16.1138 33.3236C16.0357 33.4666 14.9868 35.4936 14.043 36.0995C13.0006 36.7615 12.0598 36.9053 11.5554 37.9455C11.3525 38.3608 11.2678 38.8177 11.332 39.255C11.4262 39.9236 11.8641 40.5535 12.7612 40.944C14.2532 41.5951 19.6014 40.9988 22.5832 37.3155C23.4467 36.4214 23.8291 35.1491 23.9846 33.9827C24.3073 31.5484 22.0576 29.4644 19.6897 30.1243Z" fill="#32ABF2"/>
<path d="M16.1569 30.1716C16.2007 30.1059 16.2445 30.0432 16.2897 29.9629C16.3591 29.8417 16.4306 29.7045 16.5065 29.5578C15.4189 28.8658 13.8532 27.6329 13.7846 27.5789L13.6744 27.4935L13.6788 27.4877C13.5766 27.4052 13.4744 27.3286 13.3715 27.2395C13.1423 27.295 12.9218 27.3599 12.7153 27.4373C11.4196 27.922 10.5481 28.7928 9.92985 29.4578C9.72328 29.6797 9.54591 29.8775 9.38386 30.0351C8.49627 30.8921 7.52254 31.3789 7.10283 31.5651C7.01743 31.6191 6.93057 31.6731 6.84225 31.7271C5.29406 32.6731 5.37582 34.1775 5.54589 34.7556C5.71596 35.3337 6.36706 36.8892 8.55247 36.8505C10.2452 36.8206 12.0875 35.9206 12.8328 35.5162C12.8328 35.5162 15.9861 33.4928 17.1598 31.0658C17.162 31.0651 16.7613 30.7176 16.1569 30.1716Z" fill="#32ABF2"/>
<path d="M11.4065 24.8124C11.0065 24.2715 10.6532 23.7438 10.3984 23.3431C10.2963 23.181 10.2101 23.0416 10.1422 22.9277C9.84224 23.0066 9.46851 23.1336 9.05975 23.3423C8.07726 23.8445 7.07288 24.119 6.4758 23.8883C5.87945 23.6569 4.56703 23.0686 3.63491 23.735C2.70279 24.4015 2.40133 25.6219 2.91666 26.5241C3.35973 27.3 4.50791 28.5234 5.80499 29.0212C5.80499 29.0212 8.78384 30.4467 12.2094 27.4759C15.1605 24.9175 12.7079 24.7839 11.4065 24.8124Z" fill="#32ABF2"/>
<path d="M23.9999 34.7257C31.9323 34.7257 38.3628 28.2952 38.3628 20.3628C38.3628 12.4305 31.9323 6 23.9999 6C16.0675 6 9.63708 12.4305 9.63708 20.3628C9.63708 28.2952 16.0675 34.7257 23.9999 34.7257Z" fill="#32ABF2"/>
<path d="M28.3094 30.1243C29.751 30.5272 30.8408 31.5433 31.3795 32.2243C31.6072 32.5163 31.7087 32.9958 31.8853 33.3236C31.9634 33.4666 33.0123 35.4936 33.9561 36.0995C34.9978 36.7615 35.9394 36.9053 36.4437 37.9455C36.6467 38.3608 36.7313 38.8177 36.6671 39.255C36.5729 39.9236 36.135 40.5535 35.2379 40.944C33.7459 41.5951 28.3977 40.9988 25.416 37.3155C24.5525 36.4214 24.17 35.1491 24.0145 33.9827C23.6926 31.5484 25.9422 29.4644 28.3094 30.1243Z" fill="#32ABF2"/>
<path d="M31.8423 30.1716C31.7985 30.1059 31.7547 30.0432 31.7094 29.9629C31.6401 29.8417 31.5685 29.7045 31.4926 29.5578C32.5802 28.8658 34.1459 27.6329 34.2145 27.5789L34.3248 27.4935L34.3204 27.4877C34.4226 27.4052 34.5248 27.3286 34.627 27.2395C34.8562 27.295 35.0766 27.3599 35.2832 27.4373C36.5788 27.922 37.4503 28.7928 38.0686 29.4578C38.2751 29.6797 38.4525 29.8775 38.6146 30.0351C39.5022 30.8921 40.4759 31.3789 40.8956 31.5651C40.981 31.6191 41.0679 31.6731 41.1562 31.7271C42.7044 32.6731 42.6226 34.1775 42.4525 34.7556C42.2825 35.3337 41.6314 36.8892 39.446 36.8505C37.754 36.8206 35.9109 35.9206 35.1656 35.5162C35.1656 35.5162 32.0116 33.4928 30.8379 31.0658C30.8372 31.0651 31.2386 30.7176 31.8423 30.1716Z" fill="#32ABF2"/>
<path d="M36.5935 24.8124C36.9935 24.2715 37.3467 23.7438 37.6015 23.3431C37.7037 23.181 37.7898 23.0416 37.8577 22.9277C38.1577 23.0066 38.5314 23.1336 38.9402 23.3423C39.9227 23.8445 40.927 24.119 41.5241 23.8883C42.1205 23.6569 43.4329 23.0686 44.365 23.735C45.2971 24.4015 45.5986 25.6219 45.0833 26.5241C44.6402 27.3 43.492 28.5234 42.1949 29.0212C42.1949 29.0212 39.2161 30.4467 35.7905 27.4759C32.8394 24.9175 35.292 24.7839 36.5935 24.8124Z" fill="#32ABF2"/>
<path d="M19.0495 21.2971C19.7477 21.2971 20.3138 20.5769 20.3138 19.6884C20.3138 18.7999 19.7477 18.0796 19.0495 18.0796C18.3513 18.0796 17.7853 18.7999 17.7853 19.6884C17.7853 20.5769 18.3513 21.2971 19.0495 21.2971Z" fill="#34056F"/>
<path d="M19.5547 19C19.5547 19.3161 19.2985 19.5723 18.9824 19.5723C18.6664 19.5723 18.4102 19.3161 18.4102 19C18.4102 18.6839 18.6664 18.4277 18.9824 18.4277C19.2985 18.427 19.5547 18.6832 19.5547 19Z" fill="#F9F9F9"/>
<path d="M28.9504 21.2971C29.6486 21.2971 30.2146 20.5769 30.2146 19.6884C30.2146 18.7999 29.6486 18.0796 28.9504 18.0796C28.2522 18.0796 27.6862 18.7999 27.6862 19.6884C27.6862 20.5769 28.2522 21.2971 28.9504 21.2971Z" fill="#34056F"/>
<path d="M29.4562 19C29.4562 19.3161 29.2 19.5723 28.8839 19.5723C28.5679 19.5723 28.3116 19.3161 28.3116 19C28.3116 18.6839 28.5679 18.4277 28.8839 18.4277C29.2 18.427 29.4562 18.6832 29.4562 19Z" fill="#F9F9F9"/>
<path d="M26.324 24.6381C26.2036 26.0892 25.7152 27.9381 23.9999 27.9381C23.1532 27.9381 22.6057 27.4877 22.2546 26.8571C22.6809 25.9447 23.8094 24.3199 26.324 24.6381Z" fill="#EB5A55"/>
<path d="M26.3241 24.638C23.8087 24.3197 22.681 25.9445 22.2547 26.8569C21.4299 25.3847 21.6737 22.9277 21.6737 22.9277C22.3678 23.2255 24 23.165 24 23.165C24 23.165 25.6299 23.2255 26.3262 22.9277C26.3262 22.9277 26.4029 23.7007 26.3241 24.638Z" fill="#79292A"/>
</svg>
